<svg width="148" height="88" viewBox="0 0 148 88" fill="none" xmlns="http://www.w3.org/2000/svg">
<path d="M60.3975 18.3652H60.3213L69.7178 34.8174H51.1934V34.8506L50.0459 32.8945L17.834 87.8105L17.7236 88H0L0.327148 87.4277L40.8975 16.3936L49.6455 0.201172L49.7402 0.0234375L60.3975 18.3652ZM147.244 0.561523L137.929 18.1621L137.821 18.3652H124.07C123.519 18.3456 122.959 18.3306 122.391 18.3154C121.632 19.69 120.829 21.2561 119.99 22.9561H136.051L135.765 23.5137L130.27 34.2266L130.163 34.4346H121.947C119.698 34.3521 117.209 34.3364 114.576 34.3643C113.526 36.5957 112.456 38.8494 111.376 41.0449C109.223 45.4217 107.039 49.5628 104.931 52.8066C103.877 54.4282 102.836 55.8342 101.822 56.9365C100.812 58.0346 99.8073 58.855 98.8203 59.2734C94.4356 61.1318 90.5855 61.4262 87.7139 61.124C86.348 60.9803 85.2014 60.7006 84.3223 60.3896L99.627 87.1855L99.7666 87.4229L100.104 88H81.2207L81.1104 87.8076L64.7588 59.3037H43.6367L43.9775 58.7266L52.6602 44.0098L75.6963 44.1709V44.1494C79.3261 44.2529 81.8979 44.2333 83.9102 43.8623C86.2871 43.424 87.8747 42.5004 89.4893 40.6787C90.7739 39.2291 92.066 37.2209 93.7666 34.4346H72.0059L72.2988 33.874L77.9072 23.1611L78.0146 22.9561H100.705C101.663 21.3656 102.4 20.141 102.956 19.2109C103.144 18.8965 103.31 18.6149 103.459 18.3652H69.5908L57.7734 0H147.541L147.244 0.561523Z" fill="url(#paint0_linear_1321_2371)"/>
<defs>
<linearGradient id="paint0_linear_1321_2371" x1="95.5155" y1="0.234044" x2="64.1437" y2="101.768" gradientUnits="userSpaceOnUse">
<stop stop-color="#116753"/>
<stop offset="1" stop-color="#0A5592"/>
</linearGradient>
</defs>
</svg>
