<svg width="193" height="179" viewBox="0 0 193 179" fill="none" xmlns="http://www.w3.org/2000/svg">
<path d="M83.0342 18.3652H82.958L92.3545 34.8174H73.8301V34.8506L72.6826 32.8945L40.4707 87.8105L40.3604 88H22.6367L22.9639 87.4277L63.5342 16.3936L72.2822 0.201172L72.377 0.0234375L83.0342 18.3652ZM169.881 0.561523L160.565 18.1621L160.458 18.3652H146.707C146.155 18.3456 145.595 18.3306 145.027 18.3154C144.268 19.69 143.465 21.2561 142.627 22.9561H158.688L158.401 23.5137L152.906 34.2266L152.8 34.4346H144.584C142.335 34.3521 139.846 34.3364 137.213 34.3643C136.163 36.5957 135.092 38.8494 134.013 41.0449C131.86 45.4217 129.676 49.5628 127.567 52.8066C126.513 54.4282 125.473 55.8342 124.459 56.9365C123.449 58.0346 122.444 58.855 121.457 59.2734C117.072 61.1318 113.222 61.4262 110.351 61.124C108.985 60.9803 107.838 60.7006 106.959 60.3896L122.264 87.1855L122.403 87.4229L122.741 88H103.857L103.747 87.8076L87.3955 59.3037H66.2734L66.6143 58.7266L75.2969 44.0098L98.333 44.1709V44.1494C101.963 44.2529 104.535 44.2333 106.547 43.8623C108.924 43.424 110.511 42.5004 112.126 40.6787C113.411 39.2291 114.703 37.2209 116.403 34.4346H94.6426L94.9355 33.874L100.544 23.1611L100.651 22.9561H123.342C124.3 21.3656 125.036 20.141 125.593 19.2109C125.781 18.8965 125.947 18.6149 126.096 18.3652H92.2275L80.4102 0H170.178L169.881 0.561523Z" fill="url(#paint0_linear_1319_19)"/>
<path d="M26.5403 150.898H11.6948L9.23838 158H1.38843L14.7921 120.673H23.4964L36.9001 158H28.9968L26.5403 150.898ZM24.5111 144.917L19.1176 129.324L13.7241 144.917H24.5111ZM61.1346 158L52.9108 143.475H49.3863V158H41.9102V120.726H55.9013C58.7849 120.726 61.2414 121.242 63.2706 122.275C65.2998 123.272 66.8129 124.642 67.8097 126.387C68.8421 128.095 69.3583 130.018 69.3583 132.154C69.3583 134.61 68.6463 136.835 67.2223 138.829C65.7983 140.787 63.68 142.14 60.8676 142.888L69.7855 158H61.1346ZM49.3863 137.868H55.6343C57.6635 137.868 59.1765 137.387 60.1734 136.426C61.1702 135.429 61.6686 134.059 61.6686 132.314C61.6686 130.605 61.1702 129.288 60.1734 128.362C59.1765 127.401 57.6635 126.921 55.6343 126.921H49.3863V137.868ZM116.026 132.261C116.026 134.254 115.545 136.123 114.584 137.868C113.658 139.612 112.181 141.018 110.152 142.086C108.158 143.155 105.63 143.689 102.569 143.689H96.3208V158H88.8447V120.726H102.569C105.452 120.726 107.909 121.224 109.938 122.221C111.967 123.218 113.48 124.589 114.477 126.333C115.51 128.078 116.026 130.053 116.026 132.261ZM102.248 137.654C104.313 137.654 105.844 137.191 106.841 136.266C107.838 135.305 108.336 133.97 108.336 132.261C108.336 128.629 106.307 126.814 102.248 126.814H96.3208V137.654H102.248ZM144.189 150.898H129.344L126.887 158H119.038L132.441 120.673H141.146L154.549 158H146.646L144.189 150.898ZM142.16 144.917L136.767 129.324L131.373 144.917H142.16ZM189.197 120.726L176.594 145.024V158H169.118V145.024L156.462 120.726H164.899L172.91 137.761L180.866 120.726H189.197Z" fill="url(#paint1_linear_1319_19)"/>
<defs>
<linearGradient id="paint0_linear_1319_19" x1="118.152" y1="0.234044" x2="86.7805" y2="101.768" gradientUnits="userSpaceOnUse">
<stop stop-color="#116753"/>
<stop offset="1" stop-color="#0A5592"/>
</linearGradient>
<linearGradient id="paint1_linear_1319_19" x1="124.822" y1="99.2128" x2="104.048" y2="195.863" gradientUnits="userSpaceOnUse">
<stop stop-color="#116753"/>
<stop offset="1" stop-color="#0A5592"/>
</linearGradient>
</defs>
</svg>
