<svg width="398" height="88" viewBox="0 0 398 88" fill="none" xmlns="http://www.w3.org/2000/svg">
<path d="M85.1279 18.3652H85.0518L94.4482 34.8174H75.9238V34.8506L74.7764 32.8945L42.5645 87.8105L42.4541 88H24.7305L25.0576 87.4277L65.6279 16.3936L74.376 0.201172L74.4707 0.0234375L85.1279 18.3652ZM171.975 0.561523L162.659 18.1621L162.552 18.3652H148.801C148.249 18.3456 147.689 18.3306 147.121 18.3154C146.362 19.69 145.559 21.2561 144.721 22.9561H160.781L160.495 23.5137L155 34.2266L154.894 34.4346H146.678C144.429 34.3521 141.939 34.3364 139.307 34.3643C138.257 36.5957 137.186 38.8494 136.106 41.0449C133.954 45.4217 131.77 49.5628 129.661 52.8066C128.607 54.4282 127.567 55.8342 126.553 56.9365C125.543 58.0346 124.538 58.855 123.551 59.2734C119.166 61.1318 115.316 61.4262 112.444 61.124C111.078 60.9803 109.932 60.7006 109.053 60.3896L124.357 87.1855L124.497 87.4229L124.835 88H105.951L105.841 87.8076L89.4893 59.3037H68.3672L68.708 58.7266L77.3906 44.0098L100.427 44.1709V44.1494C104.057 44.2529 106.628 44.2333 108.641 43.8623C111.018 43.424 112.605 42.5004 114.22 40.6787C115.504 39.2291 116.796 37.2209 118.497 34.4346H96.7363L97.0293 33.874L102.638 23.1611L102.745 22.9561H125.436C126.393 21.3656 127.13 20.141 127.687 19.2109C127.875 18.8965 128.041 18.6149 128.189 18.3652H94.3213L82.5039 0H172.271L171.975 0.561523Z" fill="url(#paint0_linear_1319_20)"/>
<path d="M209.81 55.8977H194.964L192.508 63H184.658L198.062 25.6727H206.766L220.17 63H212.266L209.81 55.8977ZM207.781 49.9168L202.387 34.3237L196.994 49.9168H207.781ZM244.404 63L236.18 48.4749H232.656V63H225.18V25.7261H239.171C242.054 25.7261 244.511 26.2423 246.54 27.2747C248.569 28.2715 250.082 29.6422 251.079 31.3866C252.112 33.0954 252.628 35.0179 252.628 37.1539C252.628 39.6104 251.916 41.8354 250.492 43.829C249.068 45.7871 246.95 47.1399 244.137 47.8875L253.055 63H244.404ZM232.656 42.8678H238.904C240.933 42.8678 242.446 42.3872 243.443 41.426C244.44 40.4292 244.938 39.0585 244.938 37.3141C244.938 35.6053 244.44 34.2881 243.443 33.3624C242.446 32.4012 240.933 31.9206 238.904 31.9206H232.656V42.8678ZM299.295 37.2607C299.295 39.2543 298.815 41.1234 297.854 42.8678C296.928 44.6122 295.45 46.0185 293.421 47.0865C291.428 48.1545 288.9 48.6885 285.838 48.6885H279.59V63H272.114V25.7261H285.838C288.722 25.7261 291.178 26.2245 293.208 27.2213C295.237 28.2181 296.75 29.5888 297.747 31.3332C298.779 33.0776 299.295 35.0535 299.295 37.2607ZM285.518 42.6542C287.583 42.6542 289.114 42.1914 290.11 41.2658C291.107 40.3046 291.606 38.9695 291.606 37.2607C291.606 33.6294 289.576 31.8138 285.518 31.8138H279.59V42.6542H285.518ZM327.459 55.8977H312.613L310.157 63H302.307L315.711 25.6727H324.415L337.819 63H329.915L327.459 55.8977ZM325.43 49.9168L320.036 34.3237L314.643 49.9168H325.43ZM372.466 25.7261L359.864 50.0236V63H352.388V50.0236L339.732 25.7261H348.169L356.179 42.761L364.136 25.7261H372.466Z" fill="url(#paint1_linear_1319_20)"/>
<defs>
<linearGradient id="paint0_linear_1319_20" x1="120.246" y1="0.234044" x2="88.8742" y2="101.768" gradientUnits="userSpaceOnUse">
<stop stop-color="#116753"/>
<stop offset="1" stop-color="#0A5592"/>
</linearGradient>
<linearGradient id="paint1_linear_1319_20" x1="306.272" y1="4.21277" x2="285.219" y2="100.736" gradientUnits="userSpaceOnUse">
<stop stop-color="#116753"/>
<stop offset="1" stop-color="#0A5592"/>
</linearGradient>
</defs>
</svg>
