<svg width="1280" height="832" viewBox="0 0 1280 832" fill="none" xmlns="http://www.w3.org/2000/svg">
<g clip-path="url(#clip0_18_59)">
<mask id="mask0_18_59" style="mask-type:luminance" maskUnits="userSpaceOnUse" x="0" y="0" width="1280" height="832">
<path d="M1280 0H0V832H1280V0Z" fill="white"/>
</mask>
<g mask="url(#mask0_18_59)">
<mask id="mask1_18_59" style="mask-type:luminance" maskUnits="userSpaceOnUse" x="0" y="0" width="1440" height="1024">
<path d="M1440 0H0V1024H1440V0Z" fill="white"/>
</mask>
<g mask="url(#mask1_18_59)">
<path d="M1440 0H0V1024H1440V0Z" fill="url(#paint0_linear_18_59)"/>
<path d="M541.923 594.303C545.908 603.807 549.816 613.635 553.933 623.037C555.631 620.789 557.666 617.589 559.284 615.202C560.985 615.192 565.181 615.325 566.646 615.055L566.82 615.054C568.034 615.448 569.821 615.305 571.127 615.314C597.528 615.498 624.034 614.969 650.423 615.33C650.28 616.621 650.402 617.208 650.553 618.482C650.103 621.345 651.078 627.059 650.149 629.268C648.963 632.087 645.998 636.027 644.17 638.708L634.243 653.283L592.597 714.768L541.807 714.781C528.523 714.786 514.72 714.98 501.486 714.706L492.168 692.246C491.415 690.439 488.111 682.853 487.886 681.427C489.488 680.805 491.297 680.771 493.003 680.677L493.097 666.537C508.854 642.551 526.6 618.383 541.923 594.303Z" fill="#0E65C8"/>
<path d="M947.968 508.878C952.705 521.849 957.349 535.263 962.243 548.095C964.261 545.027 966.681 540.659 968.604 537.402C970.625 537.388 975.613 537.569 977.354 537.2L977.561 537.199C979.004 537.737 981.128 537.541 982.68 537.554C1014.06 537.806 1045.57 537.084 1076.93 537.576C1076.76 539.338 1076.91 540.138 1077.09 541.878C1076.55 545.785 1077.71 553.584 1076.61 556.599C1075.2 560.446 1071.68 565.824 1069.5 569.482L1057.7 589.374L1008.2 673.29L947.83 673.307C932.041 673.314 915.633 673.58 899.903 673.206L888.828 642.552C887.932 640.085 884.005 629.732 883.737 627.786C885.641 626.937 887.792 626.891 889.82 626.762L889.932 607.464C908.661 574.727 929.755 541.742 947.968 508.878Z" fill="#0E65C8"/>
<path d="M566.645 615.055L566.819 615.054C568.033 615.448 569.82 615.305 571.126 615.314C597.527 615.498 624.034 614.969 650.422 615.33L614.009 668.997C605.992 680.871 596.895 694.95 588.537 706.422C580.167 687.395 571.787 666.347 563.826 646.962L557.033 630.766C556.411 629.279 554.257 624.297 553.932 623.037C555.63 620.789 557.665 617.589 559.284 615.202C560.984 615.192 565.181 615.325 566.645 615.055Z" fill="#3CEAE0"/>
<path d="M977.423 537.065L977.629 537.064C979.064 537.601 981.176 537.405 982.72 537.418C1013.93 537.669 1045.26 536.948 1076.45 537.44L1033.41 610.593C1023.93 626.779 1013.18 645.969 1003.3 661.607C993.407 635.671 983.501 606.982 974.091 580.557L966.062 558.481C965.326 556.453 962.781 549.662 962.396 547.945C964.403 544.881 966.809 540.519 968.722 537.266C970.732 537.252 975.692 537.433 977.423 537.065Z" fill="#3CEAE0"/>
<path d="M625.061 525.155C625.094 525.085 625.135 525.017 625.16 524.944C625.593 523.713 624.774 519.562 625.87 518.863C627.137 518.054 706.249 518.231 716.542 518.177C716.519 520.504 716.194 530.248 716.944 531.619C715.438 532.806 711.091 532.404 708.886 532.41C708.597 535.106 709.332 541.194 708.528 543.201C707.506 545.74 704.339 550.007 702.715 552.393L692.43 567.485L670.481 599.885C666.807 605.313 662.723 611.639 658.908 616.89C658.232 617.791 658.14 618.219 656.921 618.385C654.865 618.669 652.652 618.439 650.553 618.483C650.402 617.208 650.279 616.621 650.422 615.33C624.034 614.969 597.527 615.498 571.126 615.314C569.82 615.305 568.033 615.448 566.819 615.054L566.645 615.055C566.635 611.816 566.512 607.556 566.755 604.406L566.84 604.15C568.581 601.01 573.177 594.642 575.31 591.519L588.845 571.524C598.388 557.654 607.823 542.947 617.54 529.291C619.648 529.072 622.797 529.139 624.984 529.122L625.061 525.155Z" fill="#2DD0E8"/>
<path d="M1046.94 414.181C1046.98 414.085 1047.03 413.993 1047.06 413.893C1047.57 412.212 1046.6 406.545 1047.89 405.591C1049.39 404.487 1142.52 404.728 1154.64 404.655C1154.61 407.831 1154.23 421.133 1155.11 423.006C1153.34 424.625 1148.22 424.076 1145.62 424.085C1145.28 427.766 1146.15 436.077 1145.2 438.816C1144 442.283 1140.27 448.107 1138.36 451.365L1126.25 471.968L1100.41 516.199C1096.09 523.61 1091.28 532.245 1086.79 539.414C1085.99 540.644 1085.88 541.228 1084.45 541.455C1082.03 541.843 1079.42 541.528 1076.95 541.588C1076.77 539.847 1076.63 539.047 1076.8 537.284C1045.73 536.792 1014.53 537.514 983.45 537.262C981.912 537.25 979.808 537.446 978.38 536.908H978.175C978.163 532.486 978.018 526.672 978.304 522.371L978.404 522.021C980.454 517.735 985.864 509.042 988.375 504.779L1004.31 477.482C1015.54 458.547 1026.65 438.47 1038.09 419.828C1040.57 419.529 1044.28 419.62 1046.85 419.596L1046.94 414.181Z" fill="#2DD0E8"/>
<path d="M625.06 525.155C625.093 525.085 625.134 525.017 625.16 524.944C625.593 523.713 624.773 519.562 625.869 518.863C627.137 518.054 706.248 518.231 716.542 518.177C716.519 520.504 716.193 530.248 716.944 531.619C715.438 532.806 711.09 532.404 708.886 532.41C708.596 535.106 709.331 541.194 708.527 543.201C707.506 545.74 704.338 550.007 702.715 552.393L692.429 567.485L670.481 599.885C666.806 605.313 662.723 611.639 658.907 616.89C656.92 613.427 658.802 605.981 657.852 604.221C658.738 603.229 660.953 599.84 661.783 598.619L669.551 587.136L694.068 551.03L702.92 537.899C704.553 535.489 706.62 532.256 708.404 530.069L708.335 529.386C707.598 529.07 631.082 529.146 624.983 529.122L625.06 525.155Z" fill="#0E64C7"/>
<path d="M1047.04 414.2C1047.08 414.104 1047.13 414.012 1047.16 413.911C1047.67 412.227 1046.71 406.549 1048 405.593C1049.49 404.486 1142.53 404.728 1154.64 404.655C1154.61 407.838 1154.23 421.166 1155.11 423.043C1153.34 424.665 1148.23 424.115 1145.63 424.124C1145.29 427.812 1146.16 436.141 1145.21 438.885C1144.01 442.359 1140.28 448.195 1138.38 451.459L1126.28 472.104L1100.46 516.424C1096.14 523.85 1091.34 532.503 1086.85 539.686C1084.52 534.949 1086.73 524.764 1085.61 522.355C1086.65 520.999 1089.26 516.363 1090.23 514.692L1099.37 498.985L1128.21 449.595L1138.62 431.633C1140.54 428.337 1142.97 423.913 1145.07 420.922L1144.99 419.988C1144.12 419.556 1054.13 419.66 1046.95 419.626L1047.04 414.2Z" fill="#0E64C7"/>
<path d="M566.84 604.15L626.894 604.22C636.701 604.213 648.213 604.538 657.853 604.221C658.803 605.982 656.921 613.427 658.908 616.89C658.232 617.791 658.14 618.219 656.921 618.385C654.865 618.67 652.652 618.439 650.553 618.483C650.402 617.208 650.279 616.621 650.422 615.33C624.034 614.97 597.527 615.498 571.126 615.314C569.82 615.305 568.033 615.448 566.819 615.054L566.645 615.055C566.635 611.816 566.512 607.556 566.755 604.406L566.84 604.15Z" fill="#0F61C7"/>
<path d="M978.403 521.988L1048.77 522.084C1060.26 522.075 1073.75 522.519 1085.05 522.085C1086.16 524.493 1083.95 534.675 1086.28 539.41C1085.49 540.643 1085.38 541.227 1083.95 541.455C1081.55 541.843 1078.95 541.528 1076.49 541.588C1076.32 539.844 1076.17 539.043 1076.34 537.277C1045.42 536.784 1014.36 537.507 983.425 537.255C981.895 537.242 979.801 537.438 978.379 536.9H978.175C978.163 532.471 978.019 526.646 978.304 522.339L978.403 521.988Z" fill="#0F61C7"/>
<path d="M566.755 604.406C567.424 605.411 567.101 612.501 567.91 614.719C568.683 614.685 568.922 614.592 569.641 614.811C569.265 615.087 567.534 614.982 566.819 615.054L566.645 615.055C566.635 611.816 566.512 607.556 566.755 604.406Z" fill="#0677D2"/>
<path d="M978.257 522.643C978.834 524.004 978.556 533.606 979.255 536.61C979.922 536.564 980.128 536.438 980.75 536.734C980.424 537.108 978.93 536.966 978.313 537.063L978.162 537.064C978.153 532.677 978.047 526.909 978.257 522.643Z" fill="#0677D2"/>
<path d="M401.72 677.54C424.663 677.996 447.813 677.264 470.778 677.574C472.836 677.599 483.483 677.302 484.97 677.76L485.18 678.144L484.875 678.869C481.669 682.533 475.759 692.169 472.758 696.526L447.381 733.859C443.94 738.918 440.131 744.811 436.581 749.74C406.358 749.67 375.55 750.139 345.385 749.74C346.633 747.505 349.454 743.572 351.003 741.273L364.319 721.759L384.521 691.898C387.361 687.73 391.405 681.291 394.356 677.561C396.675 677.487 399.373 677.543 401.72 677.54Z" fill="#D6DBDB"/>
<path d="M782.499 622.339C809.609 622.958 836.963 621.964 864.098 622.385C866.53 622.419 879.111 622.016 880.868 622.638L881.116 623.16L880.755 624.144C876.967 629.118 869.984 642.204 866.438 648.121L836.452 698.814C832.386 705.684 827.885 713.687 823.69 720.379C787.979 720.285 751.576 720.921 715.933 720.379C717.408 717.344 720.741 712.004 722.571 708.882L738.306 682.385L762.176 641.835C765.532 636.176 770.311 627.432 773.798 622.367C776.538 622.266 779.725 622.343 782.499 622.339Z" fill="#E2E9EA"/>
<path d="M337.878 760.776L345.297 760.756L429.013 760.81C417.745 778.035 405.731 794.988 394.256 812.077C390.178 818.15 384.081 826.614 380.522 832.689H289L318.902 788.618C325.064 779.522 331.498 769.658 337.878 760.776Z" fill="#0995FA"/>
<path d="M706.967 735.705L715.754 735.677L814.912 735.75C801.565 759.294 787.336 782.467 773.744 805.826C768.914 814.127 761.693 825.696 757.476 834H649.073L684.491 773.761C691.789 761.327 699.41 747.844 706.967 735.705Z" fill="#0995FA"/>
<path d="M436.581 749.74C440.132 744.811 443.941 738.918 447.382 733.859L472.759 696.527C475.76 692.169 481.67 682.533 484.875 678.869C484.911 679.952 484.753 679.479 485.317 680.359C486.161 680.723 486.168 680.669 487.049 680.595C486.073 680.815 486.005 680.649 485.524 681.25C485.357 683.785 485.454 688.846 485.591 691.488C480.126 700.41 471.768 711.939 465.821 720.756L446.996 748.511C443.585 753.539 439.961 759.138 436.442 764.043C434.011 764.046 431.52 764.023 429.095 764.056L429.094 774.788C425.521 780.6 420.548 787.492 416.641 793.257L389.934 832.689H380.522C384.082 826.614 390.178 818.15 394.256 812.077C405.732 794.988 417.745 778.035 429.013 760.81L345.297 760.756C345.266 757.087 345.195 753.401 345.386 749.74C375.551 750.139 406.359 749.671 436.581 749.74Z" fill="#125AC3"/>
<path d="M823.588 720.886C827.774 714.166 832.264 706.129 836.32 699.23L866.236 648.322C869.774 642.38 876.741 629.24 880.52 624.244C880.561 625.721 880.375 625.075 881.04 626.276C882.036 626.771 882.043 626.698 883.082 626.597C881.931 626.897 881.852 626.67 881.284 627.491C881.087 630.947 881.202 637.849 881.363 641.452C874.92 653.618 865.068 669.339 858.057 681.363L835.866 719.21C831.844 726.067 827.572 733.702 823.424 740.391C820.559 740.395 817.622 740.363 814.763 740.409V755.044C810.55 762.969 804.688 772.367 800.082 780.229L768.599 834H757.503C761.7 825.715 768.887 814.174 773.694 805.893C787.222 782.589 801.384 759.471 814.667 735.982L715.979 735.909C715.942 730.906 715.859 725.879 716.083 720.886C751.643 721.431 787.961 720.792 823.588 720.886Z" fill="#125AC3"/>
<path d="M604.787 463.929C605.893 463.623 612.883 458.94 614.527 457.905L632.845 446.565L726.003 388.864L755.454 370.609C759.958 367.831 767.965 363.205 772.018 360.171C774.433 367.079 777.981 375.28 780.719 382.177L798.637 427.29L807.624 449.996C808.674 452.681 811.711 460.82 812.945 462.84V464.455V473.217L775.705 473.204C769.46 473.204 762.57 473.074 756.358 473.232C752.231 479.321 717.374 529.92 716.944 531.619C716.194 530.248 716.519 520.504 716.542 518.178C706.249 518.231 627.137 518.054 625.87 518.863C624.774 519.562 625.593 523.713 625.161 524.944C625.135 525.018 625.094 525.085 625.061 525.155C624.923 523.254 625.03 520.089 625.033 518.094C634.727 503.289 645.481 488.546 655.111 473.69C654.599 473.33 653.482 473.364 652.786 473.323L604.428 473.436C604.441 471.901 604.272 464.697 604.787 463.929Z" fill="#E0E2E3"/>
<path d="M1022.49 330.619C1023.8 330.202 1032.06 323.81 1034 322.396L1055.65 306.919L1165.75 228.163L1200.56 203.248C1205.88 199.455 1215.35 193.142 1220.14 189C1222.99 198.429 1227.19 209.622 1230.42 219.036L1251.6 280.61L1262.22 311.602C1263.46 315.267 1267.05 326.375 1268.51 329.132V331.337V343.297L1224.5 343.278C1217.11 343.279 1208.97 343.101 1201.63 343.317C1196.75 351.627 1155.55 420.69 1155.05 423.009C1154.16 421.137 1154.54 407.838 1154.57 404.662C1142.41 404.735 1048.9 404.494 1047.41 405.598C1046.11 406.552 1047.08 412.218 1046.57 413.898C1046.54 413.998 1046.49 414.09 1046.45 414.186C1046.29 411.591 1046.41 407.271 1046.42 404.548C1057.87 384.342 1070.58 364.219 1081.97 343.942C1081.36 343.45 1080.04 343.497 1079.22 343.441L1022.07 343.595C1022.08 341.5 1021.88 331.667 1022.49 330.619Z" fill="#EBEBEB"/>
<path d="M716.624 518.039C719.005 513.968 722.513 509.053 725.22 505.051L740.255 482.871L748.316 470.981C749.365 469.412 752.031 465.228 753.191 464.032C758.074 464.346 765.24 464.218 770.3 464.219L798.919 464.258C801.53 464.27 810.963 464.049 812.945 464.455V473.217L775.705 473.204C769.46 473.204 762.57 473.074 756.358 473.232C752.231 479.321 717.374 529.92 716.944 531.619C716.194 530.247 716.519 520.504 716.542 518.177C706.249 518.231 627.137 518.054 625.87 518.863C624.774 519.562 625.593 523.713 625.161 524.944C625.135 525.017 625.094 525.085 625.061 525.155C624.923 523.253 625.03 520.088 625.033 518.094L716.624 518.039Z" fill="#0677D2"/>
<path d="M1154.97 404.439C1157.78 398.871 1161.91 392.151 1165.1 386.678L1182.82 356.348L1192.33 340.088C1193.56 337.943 1196.71 332.221 1198.07 330.585C1203.83 331.015 1212.28 330.84 1218.24 330.841L1251.98 330.895C1255.05 330.911 1266.17 330.609 1268.51 331.164V343.146L1224.61 343.128C1217.25 343.128 1209.13 342.95 1201.81 343.166C1196.94 351.492 1155.85 420.686 1155.35 423.009C1154.46 421.133 1154.85 407.809 1154.87 404.628C1142.74 404.701 1049.48 404.459 1047.99 405.565C1046.7 406.521 1047.66 412.197 1047.15 413.881C1047.12 413.981 1047.08 414.073 1047.04 414.17C1046.87 411.569 1047 407.241 1047 404.513L1154.97 404.439Z" fill="#0677D2"/>
<path d="M604.787 463.929C612.007 464.407 619.174 464.287 626.408 464.29L661.463 464.281C659.699 467.038 657.927 469.961 655.956 472.575C655.262 473.494 653.884 473.313 652.786 473.323L604.428 473.436C604.441 471.901 604.272 464.697 604.787 463.929Z" fill="#0D66C9"/>
<path d="M1022.49 330.585C1031.03 331.244 1039.52 331.08 1048.08 331.083L1089.56 331.071C1087.47 334.873 1085.38 338.904 1083.04 342.509C1082.22 343.776 1080.59 343.526 1079.29 343.54L1022.07 343.695C1022.08 341.578 1021.88 331.644 1022.49 330.585Z" fill="#0D66C9"/>
<path d="M450.52 594.38C457.796 594.236 465.545 594.367 472.852 594.366L515.551 594.347L532.862 594.391C535.26 594.396 539.686 594.512 541.921 594.303C526.599 618.383 508.852 642.551 493.096 666.537L493.001 680.677C491.295 680.771 489.486 680.805 487.884 681.427L487.048 680.595C486.166 680.669 486.16 680.723 485.316 680.359C484.752 679.478 484.909 679.952 484.874 678.869L485.179 678.145L484.969 677.761C483.483 677.302 472.836 677.599 470.777 677.574C447.812 677.264 424.662 677.996 401.719 677.54C401.706 674.944 401.555 668.864 401.908 666.498C402.71 664.932 404.937 661.803 405.999 660.234L414.218 648.18L438.154 612.86C441.974 607.208 447.225 600.081 450.52 594.38Z" fill="#42F5DD"/>
<path d="M840.549 508.982C849.153 508.787 858.317 508.965 866.957 508.963L917.448 508.938L937.918 508.998C940.754 509.004 945.987 509.163 948.63 508.878C930.512 541.669 909.527 574.581 890.895 607.244L890.783 626.5C888.766 626.629 886.626 626.674 884.732 627.521L883.743 626.388C882.701 626.489 882.693 626.562 881.695 626.067C881.028 624.868 881.214 625.513 881.173 624.038L881.534 623.052L881.286 622.529C879.527 621.905 866.938 622.309 864.504 622.274C837.348 621.852 809.973 622.849 782.843 622.229C782.828 618.694 782.649 610.414 783.067 607.192C784.015 605.058 786.648 600.798 787.904 598.661L797.623 582.247L825.927 534.149C830.444 526.451 836.653 516.746 840.549 508.982Z" fill="#42F5DD"/>
<path d="M401.908 666.499L493.096 666.537L493.001 680.677C491.295 680.771 489.486 680.805 487.884 681.427L487.048 680.595C486.166 680.669 486.16 680.723 485.316 680.359C484.752 679.479 484.909 679.952 484.874 678.869L485.179 678.145L484.969 677.761C483.483 677.302 472.836 677.599 470.777 677.574C447.812 677.264 424.662 677.996 401.719 677.541C401.706 674.945 401.555 668.864 401.908 666.499Z" fill="#1061C7"/>
<path d="M783.065 607.201L890.292 607.253L890.181 626.5C888.175 626.629 886.047 626.674 884.164 627.521L883.18 626.389C882.143 626.49 882.136 626.563 881.143 626.068C880.48 624.869 880.665 625.514 880.624 624.04L880.983 623.054L880.736 622.531C878.988 621.907 866.468 622.311 864.048 622.277C837.044 621.855 809.822 622.852 782.843 622.231C782.828 618.698 782.649 610.421 783.065 607.201Z" fill="#1061C7"/>
<path d="M1068.27 755.636C1072.25 765.139 1076.16 774.968 1080.28 784.37C1081.98 782.122 1084.01 778.922 1085.63 776.535C1087.33 776.525 1091.53 776.658 1092.99 776.387H1093.17C1094.38 776.781 1096.17 776.637 1097.47 776.647C1123.87 776.831 1150.38 776.302 1176.77 776.663C1176.63 777.954 1176.75 778.54 1176.9 779.815C1176.45 782.678 1177.42 788.392 1176.5 790.601C1175.31 793.42 1172.34 797.36 1170.52 800.041L1160.59 814.616L1118.94 876.101L1068.15 876.113C1054.87 876.118 1041.07 876.313 1027.83 876.039L1018.51 853.579C1017.76 851.771 1014.46 844.186 1014.23 842.759C1015.83 842.137 1017.64 842.104 1019.35 842.009L1019.44 827.87C1035.2 803.883 1052.95 779.715 1068.27 755.636Z" fill="#0E65C8"/>
<path d="M1092.99 776.387H1093.17C1094.38 776.781 1096.17 776.637 1097.47 776.647C1123.87 776.831 1150.38 776.302 1176.77 776.663L1140.36 830.33C1132.34 842.204 1123.24 856.282 1114.88 867.754C1106.51 848.727 1098.13 827.68 1090.17 808.295L1083.38 792.099C1082.76 790.612 1080.6 785.629 1080.28 784.37C1081.98 782.122 1084.01 778.922 1085.63 776.535C1087.33 776.525 1091.53 776.658 1092.99 776.387Z" fill="#3CEAE0"/>
<path d="M1151.41 686.488C1151.44 686.418 1151.48 686.35 1151.51 686.277C1151.94 685.046 1151.12 680.895 1152.22 680.196C1153.48 679.387 1232.6 679.564 1242.89 679.51C1242.87 681.837 1242.54 691.58 1243.29 692.952C1241.78 694.138 1237.44 693.736 1235.23 693.742C1234.94 696.439 1235.68 702.527 1234.87 704.533C1233.85 707.073 1230.69 711.34 1229.06 713.726L1218.78 728.818L1196.83 761.217C1193.15 766.646 1189.07 772.972 1185.25 778.223C1184.58 779.124 1184.49 779.552 1183.27 779.718C1181.21 780.002 1179 779.772 1176.9 779.815C1176.75 778.54 1176.63 777.954 1176.77 776.663C1150.38 776.302 1123.87 776.831 1097.47 776.647C1096.17 776.637 1094.38 776.781 1093.17 776.387H1092.99C1092.98 773.148 1092.86 768.889 1093.1 765.739L1093.19 765.482C1094.93 762.342 1099.52 755.975 1101.66 752.852L1115.19 732.857C1124.73 718.987 1134.17 704.28 1143.89 690.624C1145.99 690.405 1149.14 690.472 1151.33 690.454L1151.41 686.488Z" fill="#2DD0E8"/>
<path d="M1151.41 686.488C1151.44 686.418 1151.48 686.35 1151.51 686.277C1151.94 685.046 1151.12 680.895 1152.22 680.196C1153.48 679.387 1232.59 679.564 1242.89 679.51C1242.87 681.837 1242.54 691.58 1243.29 692.952C1241.78 694.138 1237.44 693.736 1235.23 693.742C1234.94 696.439 1235.68 702.527 1234.87 704.533C1233.85 707.073 1230.68 711.34 1229.06 713.726L1218.78 728.818L1196.83 761.217C1193.15 766.646 1189.07 772.972 1185.25 778.223C1183.27 774.76 1185.15 767.314 1184.2 765.553C1185.08 764.562 1187.3 761.173 1188.13 759.951L1195.9 748.469L1220.41 712.363L1229.27 699.232C1230.9 696.822 1232.97 693.589 1234.75 691.401L1234.68 690.719C1233.94 690.403 1157.43 690.479 1151.33 690.454L1151.41 686.488Z" fill="#0E64C7"/>
<path d="M1093.19 765.483L1153.24 765.553C1163.05 765.546 1174.56 765.871 1184.2 765.554C1185.15 767.314 1183.27 774.76 1185.25 778.223C1184.58 779.124 1184.49 779.552 1183.27 779.718C1181.21 780.002 1179 779.772 1176.9 779.816C1176.75 778.541 1176.63 777.954 1176.77 776.663C1150.38 776.302 1123.87 776.831 1097.47 776.647C1096.17 776.638 1094.38 776.781 1093.17 776.387L1092.99 776.388C1092.98 773.149 1092.86 768.889 1093.1 765.739L1093.19 765.483Z" fill="#0F61C7"/>
<path d="M1093.1 765.739C1093.77 766.744 1093.45 773.834 1094.26 776.052C1095.03 776.018 1095.27 775.925 1095.99 776.144C1095.61 776.42 1093.88 776.315 1093.17 776.387H1092.99C1092.98 773.148 1092.86 768.889 1093.1 765.739Z" fill="#0677D2"/>
<path d="M1131.13 625.262C1132.24 624.956 1139.23 620.273 1140.87 619.237L1159.19 607.898L1252.35 550.197L1281.8 531.942C1286.3 529.163 1294.31 524.538 1298.36 521.503C1300.78 528.412 1304.33 536.613 1307.07 543.509L1324.98 588.622L1333.97 611.329C1335.02 614.014 1338.06 622.153 1339.29 624.172V625.788V634.55L1302.05 634.537C1295.81 634.537 1288.92 634.407 1282.7 634.565C1278.58 640.654 1243.72 691.253 1243.29 692.952C1242.54 691.58 1242.87 681.837 1242.89 679.51C1232.6 679.564 1153.48 679.387 1152.22 680.196C1151.12 680.895 1151.94 685.046 1151.51 686.277C1151.48 686.35 1151.44 686.418 1151.41 686.488C1151.27 684.586 1151.38 681.421 1151.38 679.427C1161.07 664.622 1171.83 649.879 1181.46 635.023C1180.95 634.663 1179.83 634.697 1179.13 634.656L1130.77 634.769C1130.79 633.234 1130.62 626.029 1131.13 625.262Z" fill="#E0E2E3"/>
<path d="M1242.97 679.372C1245.35 675.3 1248.86 670.386 1251.57 666.384L1266.6 644.204L1274.66 632.314C1275.71 630.745 1278.38 626.561 1279.54 625.365C1284.42 625.679 1291.59 625.55 1296.65 625.552L1325.27 625.591C1327.88 625.602 1337.31 625.382 1339.29 625.788V634.55L1302.05 634.536C1295.81 634.537 1288.92 634.407 1282.7 634.565C1278.58 640.653 1243.72 691.253 1243.29 692.952C1242.54 691.58 1242.87 681.837 1242.89 679.51C1232.6 679.563 1153.48 679.386 1152.22 680.196C1151.12 680.894 1151.94 685.045 1151.51 686.277C1151.48 686.35 1151.44 686.417 1151.41 686.488C1151.27 684.586 1151.38 681.421 1151.38 679.426L1242.97 679.372Z" fill="#0677D2"/>
<path d="M1131.13 625.262C1138.35 625.739 1145.52 625.62 1152.75 625.622L1187.81 625.614C1186.05 628.371 1184.27 631.294 1182.3 633.908C1181.61 634.827 1180.23 634.645 1179.13 634.656L1130.77 634.768C1130.79 633.233 1130.62 626.029 1131.13 625.262Z" fill="#0D66C9"/>
<path d="M976.866 755.712C984.142 755.569 991.892 755.7 999.199 755.698L1041.9 755.68L1059.21 755.724C1061.61 755.729 1066.03 755.845 1068.27 755.636C1052.95 779.715 1035.2 803.883 1019.44 827.87L1019.35 842.009C1017.64 842.104 1015.83 842.137 1014.23 842.76L1013.39 841.927C1012.51 842.002 1012.51 842.055 1011.66 841.692C1011.1 840.811 1011.26 841.285 1011.22 840.202L1011.53 839.477L1011.32 839.093C1009.83 838.635 999.182 838.932 997.124 838.906C974.159 838.597 951.009 839.329 928.066 838.873C928.053 836.277 927.901 830.197 928.255 827.831C929.056 826.264 931.284 823.136 932.346 821.566L940.565 809.513L964.5 774.193C968.321 768.541 973.571 761.414 976.866 755.712Z" fill="#42F5DD"/>
<path d="M928.255 827.831L1019.44 827.87L1019.35 842.009C1017.64 842.104 1015.83 842.137 1014.23 842.76L1013.39 841.927C1012.51 842.002 1012.51 842.055 1011.66 841.692C1011.1 840.811 1011.26 841.285 1011.22 840.202L1011.53 839.477L1011.32 839.093C1009.83 838.635 999.182 838.932 997.124 838.906C974.159 838.597 951.009 839.329 928.066 838.873C928.053 836.277 927.901 830.197 928.255 827.831Z" fill="#1061C7"/>
</g>
</g>
</g>
<defs>
<linearGradient id="paint0_linear_18_59" x1="1638" y1="1113" x2="6.85578e-05" y2="-0.000100896" gradientUnits="userSpaceOnUse">
<stop stop-color="#00918F"/>
<stop offset="1" stop-color="#0073FF"/>
</linearGradient>
<clipPath id="clip0_18_59">
<rect width="1280" height="832" fill="white"/>
</clipPath>
</defs>
</svg>
